<svg width="66" height="34" viewBox="0 0 66 34" fill="none" xmlns="http://www.w3.org/2000/svg">
<path d="M0.961559 16.7565L6.67299 1.9134L14.3365 16.7908L16.2306 16.7646L22.1216 1.9134L28.673 16.7908H32.4613L25.7536 0.445066H22.1216L16.2306 14.3448L10.3049 0.445066H6.67299L0 16.7565H0.961559Z" fill="black"/>
<path d="M48.2054 5.4435C48.2054 4.02842 47.8868 2.92907 47.2496 2.14545C46.0679 0.715149 43.8204 0 40.5071 0C38.5956 0 36.9621 0.338554 35.6066 1.01566C34.2512 1.70038 33.5735 2.91385 33.5735 4.65608V16.7984L36.8231 16.7754V4.65608C36.8231 3.74312 37.1301 3.0546 37.7441 2.59051C38.3697 2.13403 39.337 1.9058 40.6461 1.9058C42.4882 1.9058 43.693 2.32043 44.2607 3.1497C44.6082 3.65943 44.782 4.62184 44.782 6.03692V16.7908H46.4937H48.2054V5.4435Z" fill="black"/>
<path d="M65.9884 5.45111C65.9884 4.03603 65.6698 2.93668 65.0327 2.15305C63.851 0.722757 61.6035 0.00760797 58.2902 0.00760797C56.3786 0.00760797 54.7451 0.346162 53.3897 1.02327C52.0342 1.70799 51.3565 2.92146 51.3565 4.66368V8.27747H54.6061V4.66368C54.6061 3.75073 54.9131 3.06221 55.5271 2.59812C56.1527 2.14164 57.1201 1.9134 58.4292 1.9134C60.2712 1.9134 61.476 2.32804 62.0437 3.15731C62.3913 3.66704 62.565 4.62945 62.565 6.04453V16.7984L65.9884 16.7908V5.45111Z" fill="black"/>
<path d="M0.961559 16.7565L6.67299 31.4095L14.3365 16.7908L16.2306 16.7646L22.1216 31.4095L28.673 16.7908H32.4613L25.7536 33.5549H22.1216L16.2306 19.6552L10.3049 33.5549H6.67299L0 16.7908L0.961559 16.7565Z" fill="black"/>
<path d="M48.2054 28.5565C48.2054 29.9716 47.8868 31.0709 47.2496 31.8546C46.0679 33.2849 43.8204 34 40.5071 34C38.5956 34 36.9621 33.6614 35.6066 32.9843C34.2512 32.2996 33.5735 31.0861 33.5735 29.3439V28.1457H36.8231V29.3439C36.8231 30.2569 37.1301 30.9454 37.7441 31.4095C38.3697 31.866 39.337 32.0942 40.6461 32.0942C42.4882 32.0942 43.693 31.6796 44.2607 30.8503C44.6082 30.3406 44.782 29.3782 44.782 27.9631V16.7908H48.2054V28.5565Z" fill="black"/>
<path d="M66 28.5565C66 29.9716 65.6814 31.0709 65.0442 31.8546C63.8626 33.2849 61.6151 34 58.3017 34C56.3902 34 54.7567 33.6614 53.4013 32.9843C52.0458 32.2996 51.3681 31.0861 51.3681 29.3439V28.1457H54.6177V29.3439C54.6177 30.2569 54.9247 30.9454 55.5387 31.4095C56.1643 31.866 57.1317 32.0942 58.4408 32.0942C60.2828 32.0942 61.4876 31.6796 62.0553 30.8503C62.4029 30.3406 62.5766 29.3782 62.5766 27.9631L62.565 16.7984L66 16.7908V28.5565Z" fill="black"/>
</svg>
